<svg width="75" height="24" viewBox="0 0 75 24" fill="none" xmlns="http://www.w3.org/2000/svg">
  <path fill-rule="evenodd" clip-rule="evenodd"
        d="M1.42 7.526a4.435 4.435 0 010-6.235 4.345 4.345 0 016.181 0l15.014 15.142a4.435 4.435 0 010 6.235 4.345 4.345 0 01-6.182 0l-4.465-4.503-4.506 4.544a4.345 4.345 0 01-6.182 0 4.435 4.435 0 010-6.235l4.506-4.544-4.367-4.404zm22.373-3.055c0 2.435-1.957 4.41-4.371 4.41-2.414 0-4.371-1.975-4.371-4.41 0-2.434 1.957-4.408 4.371-4.408 2.414 0 4.371 1.974 4.371 4.408z"
        fill="#2D2D30" />
  <path d="M38.468 23.996c-6.208 0-11.24-5.032-11.24-11.24V3.81a3.747 3.747 0 017.493 0v8.408a3.59 3.59 0 007.182 0V3.966a3.903 3.903 0 117.806 0v8.79c0 6.207-5.033 11.24-11.24 11.24z"
        fill="#1421FF" />
  <path fill-rule="evenodd" clip-rule="evenodd"
        d="M53.776 3.574a3.832 3.832 0 00-.007.235v11.935a3.516 3.516 0 000 .13v4.375a3.747 3.747 0 007.494 0v-1.291h4.29a9.447 9.447 0 000-18.895h-7.961a3.822 3.822 0 00-.152 0h-.391a3.28 3.28 0 00-3.273 3.51zm7.487 3.05v6.036h3.456a3.018 3.018 0 000-6.036h-3.456z"
        fill="#2D2D30" />
</svg>
