<svg width="126" height="40" viewBox="0 0 126 40" fill="none" xmlns="http://www.w3.org/2000/svg">
  <path d="M64.626 39.994c-10.43 0-18.884-8.46-18.884-18.895V6.403A6.296 6.296 0 0152.037.105a6.297 6.297 0 016.295 6.298v13.909c0 3.333 2.7 6.036 6.032 6.036a6.034 6.034 0 006.033-6.036V6.666A6.559 6.559 0 0176.954.105a6.559 6.559 0 016.557 6.56V21.1c0 10.436-8.455 18.895-18.885 18.895z"
        fill="#1421FF" />
  <path d="M2.384 12.544a7.35 7.35 0 010-10.392 7.34 7.34 0 0110.386 0L37.992 27.39a7.351 7.351 0 010 10.392 7.34 7.34 0 01-10.385 0l-7.502-7.506-7.568 7.573a7.34 7.34 0 01-10.386 0 7.35 7.35 0 010-10.392l7.568-7.572-7.335-7.34zM39.972 7.453a7.346 7.346 0 01-7.344 7.348 7.346 7.346 0 01-7.344-7.348A7.346 7.346 0 0132.628.105a7.346 7.346 0 017.344 7.348z"
        fill="#2D2D30" />
  <path fill-rule="evenodd" clip-rule="evenodd"
        d="M90.344 5.975a6.42 6.42 0 00-.014.429V33.696a6.297 6.297 0 006.295 6.299 6.296 6.296 0 006.294-6.299v-2.099h7.344c8.691 0 15.737-7.05 15.737-15.746C126 7.155 118.954.107 110.263.107h-13.57a6.415 6.415 0 00-.138 0h-.761a5.466 5.466 0 00-5.45 5.869zm12.575 5.065V21.1h5.851a5.029 5.029 0 005.027-5.03 5.029 5.029 0 00-5.027-5.03h-5.851z"
        fill="#2D2D30" />
</svg>
